HIERARCHY
ROOT Hips
{
	OFFSET 0.000000 0.000000 0.000000 
	CHANNELS 6 Xposition Yposition Zposition Yrotation Zrotation Xrotation 
	JOINT Lumbar
	{
		OFFSET 0.000000 0.000000 0.000000 
		CHANNELS 3 Zrotation Xrotation Yrotation
		JOINT Neck
		{
			OFFSET 0.000000 0.445665 0.000000 
			CHANNELS 3 Zrotation Xrotation Yrotation
			End Site
			{
				OFFSET 0.000000 0.227535 0.000000 
			}
		}
		JOINT RightShoulder
		{
			OFFSET 0.019635 0.377685 0.194865 
			CHANNELS 3 Zrotation Xrotation Yrotation
			JOINT RightElbow
			{
				OFFSET 0.000000 -0.243375 0.000000 
				CHANNELS 2 Zrotation Yrotation
				JOINT RightWrist
				{
					OFFSET 0.000000 -0.264825 0.000000 
					CHANNELS 2 Zrotation Xrotation
					End Site
					{
						OFFSET 0.006600 -0.176220 0.000990 
					}
				}
			}
		}
		JOINT LeftShoulder
		{
			OFFSET 0.019635 0.377685 -0.194865 
			CHANNELS 3 Zrotation Xrotation Yrotation
			JOINT LeftElbow
			{
				OFFSET 0.000000 -0.243375 0.000000 
				CHANNELS 2 Zrotation Yrotation
				JOINT LeftWrist
				{
					OFFSET 0.000000 -0.264825 0.000000 
					CHANNELS 2 Zrotation Xrotation
					End Site
					{
						OFFSET 0.006600 -0.176220 -0.000990 
					}
				}
			}
		}
	}
	JOINT RightHip
	{
		OFFSET 0.052140 -0.069960 0.075570 
		CHANNELS 3 Zrotation Xrotation Yrotation
		JOINT RightKnee
		{
			OFFSET 0.000000 -0.402270 0.000000 
			CHANNELS 1 Zrotation
			JOINT RightAnkle
			{
				OFFSET 0.000000 -0.404085 0.000000 
				CHANNELS 3 Zrotation Xrotation Yrotation
				End Site
				{
					OFFSET 0.204105 -0.089430 0.008415 
				}
			}
		}
	}
	JOINT LeftHip
	{
		OFFSET 0.052140 -0.069960 -0.075570 
		CHANNELS 3 Zrotation Xrotation Yrotation
		JOINT LeftKnee
		{
			OFFSET 0.000000 -0.402270 0.000000 
			CHANNELS 1 Zrotation
			JOINT LeftAnkle
			{
				OFFSET 0.000000 -0.404085 0.000000 
				CHANNELS 3 Zrotation Xrotation Yrotation
				End Site
				{
					OFFSET 0.204105 -0.089430 -0.008415 
				}
			}
		}
	}
}
MOTION
Frames: 35
Frame Time: 0.02
0 0.95578 0 184.97299 0 -3.83156 2.70368 2.71294 -5.62482 -42.65242 3.74766 3.92799 -3.35234 -70.60047 -77.60358 22.41265 66.83707 -18.35135 -0.76203 1.6404 64.68846 73.6982 23.47565 -63.61824 -31.01062 1.46802 -4.48998 4.23338 1.30282 -6.03087 -1.46779 -4.41907 -8.48979 -2.11155 4.85938 -3.19974 -6.47873 2.56376 2.97937 2.35152
-7e-05 0.95577 -0 184.99951 0 -3.82988 2.70514 2.70956 -5.64283 -42.65326 3.77143 3.92257 -3.35898 -70.61783 -77.60349 22.4018 66.80553 -18.34041 -0.7693 1.63165 64.66331 73.71767 23.47456 -63.61922 -31.01107 1.46835 -4.49581 4.23408 1.28902 -6.03602 -1.46458 -4.41951 -8.49245 -2.10853 4.85978 -3.2157 -6.48433 2.56464 2.9951 2.34099
-0.00014 0.95576 -0 185.02577 0 -3.82822 2.70654 2.70621 -5.66072 -42.65396 3.79505 3.9172 -3.3656 -70.63509 -77.60345 22.39101 66.77432 -18.3296 -0.77655 1.62271 64.63824 73.73704 23.47347 -63.62027 -31.01142 1.46868 -4.50161 4.23477 1.27526 -6.04111 -1.46133 -4.4197 -8.49499 -2.10555 4.86017 -3.23152 -6.48991 2.56552 3.01071 2.33057
-0.00021 0.95574 -0 185.05135 0 -3.82658 2.70779 2.70298 -5.67834 -42.65431 3.81836 3.91197 -3.37211 -70.65219 -77.60378 22.38037 66.74393 -18.31929 -0.78379 1.61318 64.61321 73.7562 23.47243 -63.62167 -31.01146 1.46898 -4.50739 4.23542 1.26124 -6.04595 -1.45785 -4.41881 -8.49699 -2.10268 4.86058 -3.24715 -6.4954 2.56644 3.02597 2.32057
-0.00028 0.95573 0 185.08064 0 -3.82478 2.70994 2.69914 -5.69746 -42.65673 3.84335 3.90597 -3.3791 -70.67022 -77.60237 22.36894 66.70896 -18.30642 -0.79111 1.60707 64.58789 73.77646 23.47116 -63.62128 -31.01325 1.46943 -4.51332 4.23626 1.24827 -6.05205 -1.45554 -4.42355 -8.5017 -2.09923 4.86096 -3.26401 -6.50129 2.56715 3.04305 2.30841
-0.00035 0.95572 -0 185.10196 0 -3.82333 2.71013 2.6966 -5.7133 -42.65465 3.86474 3.90161 -3.38516 -70.68621 -77.6045 22.35916 66.6839 -18.29893 -0.79821 1.59354 64.56328 73.7944 23.47035 -63.62463 -31.01129 1.46954 -4.51888 4.23671 1.23332 -6.05554 -1.45076 -4.41647 -8.5008 -2.09701 4.86137 -3.2781 -6.50635 2.56833 3.05628 2.3008
-0.00039 0.95571 -2e-05 185.10191 0 -3.82289 2.70526 2.69774 -5.72074 -42.64048 3.87673 3.90185 -3.38781 -70.69727 -77.61792 22.35419 66.68506 -18.30697 -0.80507 1.56 64.53954 73.80591 23.47105 -63.63924 -30.99899 1.46888 -4.52386 4.23606 1.21009 -6.05112 -1.4387 -4.37453 -8.48276 -2.09802 4.86188 -3.28604 -6.50914 2.57079 3.05873 2.30627
-0.00043 0.95571 -3e-05 185.09372 0 -3.82278 2.69835 2.70017 -5.72464 -42.62168 3.88511 3.90366 -3.38969 -70.70619 -77.63468 22.35084 66.69647 -18.32033 -0.81161 1.51884 64.5167 73.8151 23.47218 -63.6575 -30.98295 1.46784 -4.52838 4.23501 1.1853 -6.04418 -1.4242 -4.32103 -8.4593 -2.10027 4.86239 -3.29096 -6.5111 2.57373 3.05732 2.31625
-0.00047 0.9557 -5e-05 185.08879 0 -3.8225 2.69218 2.70199 -5.72985 -42.60473 3.89466 3.90482 -3.3924 -70.71563 -77.64886 22.34658 66.7039 -18.3308 -0.81808 1.48081 64.49417 73.82534 23.47292 -63.6735 -30.96852 1.46683 -4.53281 4.23418 1.16305 -6.03884 -1.41108 -4.27423 -8.4394 -2.10205 4.86288 -3.29623 -6.51341 2.57648 3.05779 2.32383
-0.00051 0.9557 -7e-05 185.08556 0 -3.82236 2.68688 2.70397 -5.73671 -42.58886 3.90573 3.90605 -3.39294 -70.72686 -77.66734 22.34301 66.70834 -18.3432 -0.82555 1.44419 64.46865 73.83553 23.47439 -63.69195 -30.95421 1.46639 -4.53846 4.23323 1.13324 -6.03161 -1.39678 -4.22136 -8.41499 -2.10351 4.86347 -3.30562 -6.51578 2.57917 3.05775 2.33286
-0.00054 0.95569 -9e-05 185.07704 0 -3.82196 2.67921 2.70585 -5.73881 -42.56966 3.91333 3.90708 -3.398 -70.73401 -77.67791 22.33845 66.72162 -18.35293 -0.83074 1.40284 64.4495 73.84534 23.47455 -63.70627 -30.93905 1.46475 -4.54149 4.2324 1.11858 -6.02769 -1.38439 -4.17835 -8.39854 -2.10584 4.86381 -3.30595 -6.5179 2.58205 3.05784 2.34
-0.00058 0.95569 -0.00013 185.05447 0 -3.82107 2.66599 2.70797 -5.733 -42.54208 3.90757 3.91103 -3.41414 -70.72918 -77.66324 22.33026 66.7551 -18.35331 -0.83073 1.35001 64.4482 73.85407 23.46999 -63.70731 -30.92011 1.45928 -4.53711 4.23249 1.1483 -6.034 -1.37767 -4.16568 -8.40674 -2.11107 4.86389 -3.27991 -6.51874 2.58565 3.05927 2.3403
-0.00061 0.95569 -0.00017 185.0271 0 -3.81984 2.65032 2.70982 -5.72185 -42.51132 3.89927 3.91412 -3.43506 -70.72062 -77.64079 22.32111 66.79727 -18.35092 -0.8283 1.29264 64.45313 73.86261 23.46425 -63.70429 -30.90085 1.45276 -4.53011 4.23264 1.19305 -6.04373 -1.37299 -4.1633 -8.423 -2.11697 4.86362 -3.24521 -6.51951 2.58935 3.06096 2.33866
-0.00064 0.95568 -0.00021 185.00291 0 -3.81855 2.63553 2.71127 -5.71011 -42.48224 3.89529 3.91499 -3.45499 -70.71451 -77.62379 22.31272 66.83682 -18.35024 -0.82624 1.2377 64.45497 73.87163 23.45971 -63.7037 -30.88333 1.44713 -4.52459 4.23246 1.22933 -6.05147 -1.36749 -4.15603 -8.43452 -2.12208 4.86323 -3.21587 -6.52078 2.59279 3.06251 2.33826
-0.00068 0.95568 -0.00026 184.97434 0 -3.81815 2.62188 2.71496 -5.7104 -42.45214 3.87806 3.92657 -3.47034 -70.70486 -77.59951 22.30304 66.87181 -18.34788 -0.82702 1.1814 64.45819 73.8789 23.45244 -63.70056 -30.85908 1.4397 -4.51805 4.23357 1.27193 -6.06063 -1.36147 -4.1492 -8.44991 -2.12937 4.86405 -3.18056 -6.51994 2.59717 3.06402 2.33648
-0.00071 0.95568 -0.0003 184.95372 0 -3.81585 2.60504 2.71389 -5.68516 -42.42333 3.88754 3.9161 -3.49581 -70.70206 -77.58765 22.29578 66.91733 -18.34823 -0.82157 1.12638 64.45966 73.88977 23.45047 -63.70198 -30.84866 1.43582 -4.51271 4.232 1.30565 -6.06809 -1.35706 -4.14414 -8.45984 -2.13216 4.86222 -3.1555 -6.52359 2.59962 3.06572 2.33708
-0.0007 0.95568 -0.00032 184.95738 0 -3.80805 2.58229 2.69985 -5.58408 -42.40005 3.97449 3.84062 -3.55307 -70.71625 -77.61924 22.29561 66.9979 -18.35751 -0.79741 1.08096 64.4576 73.91108 23.46459 -63.71483 -30.87787 1.44152 -4.51415 4.22302 1.30489 -6.06619 -1.35648 -4.14053 -8.44717 -2.12339 4.8536 -3.16203 -6.5386 2.59676 3.06777 2.34464
-0.00068 0.95569 -0.00033 184.96899 0 -3.79842 2.55599 2.681 -5.45866 -42.37801 4.08789 3.74375 -3.61945 -70.73804 -77.66222 22.29788 67.0874 -18.36949 -0.76745 1.03611 64.45297 73.93611 23.48395 -63.73281 -30.92078 1.45089 -4.51639 4.21133 1.29568 -6.06307 -1.35751 -4.13854 -8.4296 -2.10993 4.84226 -3.17895 -6.55826 2.59195 3.07003 2.35467
-0.00066 0.95569 -0.00034 184.97634 0 -3.7898 2.52987 2.66431 -5.3489 -42.35457 4.1871 3.65953 -3.67838 -70.75817 -77.69521 22.29894 67.16719 -18.37963 -0.74157 0.9878 64.44774 73.95892 23.50003 -63.74977 -30.95653 1.45891 -4.51636 4.20087 1.29468 -6.06319 -1.35785 -4.13648 -8.41819 -2.09791 4.83187 -3.19042 -6.57653 2.58801 3.07225 2.36361
-0.00067 0.95569 -0.00038 184.98649 0 -3.78034 2.50978 2.64774 -5.21994 -42.33437 4.29516 3.56302 -3.7514 -70.77043 -77.74823 22.30042 67.27034 -18.39206 -0.70957 0.95282 64.45044 73.98325 23.51952 -63.76091 -30.99616 1.46561 -4.52411 4.19045 1.27644 -6.05256 -1.35797 -4.13208 -8.39124 -2.08867 4.82266 -3.20479 -6.59194 2.58412 3.07422 2.37231
-0.00061 0.9557 -0.00035 184.99244 0 -3.77231 2.47625 2.62975 -5.12475 -42.30798 4.39137 3.4869 -3.79722 -70.80111 -77.76234 22.30156 67.32786 -18.40067 -0.6889 0.89029 64.43561 74.00619 23.53361 -63.78563 -31.03103 1.47587 -4.5161 4.17926 1.29102 -6.06341 -1.35907 -4.13265 -8.39441 -2.0727 4.81038 -3.21551 -6.61414 2.57968 3.07679 2.38219
-0.00035 0.95574 -0.00016 184.98766 0 -3.76779 2.40707 2.60927 -5.13314 -42.26231 4.446 3.4736 -3.76541 -70.87921 -77.66634 22.30189 67.2488 -18.39576 -0.7016 0.75115 64.37555 74.01678 23.52782 -63.84515 -31.049 1.4958 -4.46263 4.16679 1.40609 -6.13888 -1.36104 -4.14782 -8.4904 -2.03771 4.78995 -3.21512 -6.65642 2.57421 3.08083 2.39391
-1e-05 0.95579 0.00011 184.97788 0 -3.76493 2.3244 2.58744 -5.17558 -42.21074 4.48817 3.48133 -3.70602 -70.97575 -77.53096 22.30184 67.12526 -18.38748 -0.72587 0.58426 64.29735 74.02731 23.51727 -63.91852 -31.0619 1.51909 -4.39364 4.15356 1.55306 -6.23505 -1.36419 -4.16765 -8.61534 -1.99637 4.76655 -3.21043 -6.70492 2.56824 3.0855 2.40687
0.00029 0.95583 0.00036 184.96853 0 -3.7619 2.24751 2.56607 -5.19953 -42.1631 4.53769 3.47858 -3.65936 -71.06514 -77.41341 22.30127 67.02726 -18.38213 -0.7443 0.43044 64.22583 74.04277 23.51108 -63.98646 -31.0772 1.54029 -4.33292 4.14057 1.68007 -6.31843 -1.36772 -4.18448 -8.72129 -1.95897 4.74477 -3.20676 -6.74889 2.56247 3.08999 2.41978
0.00058 0.95588 0.00057 184.96719 0 -3.7564 2.17193 2.54528 -5.23527 -42.11019 4.58126 3.47893 -3.61192 -71.15027 -77.29595 22.30297 66.90616 -18.37046 -0.76464 0.27505 64.1611 74.03742 23.49511 -64.0507 -31.09205 1.5638 -4.26705 4.12803 1.82934 -6.41603 -1.36747 -4.20513 -8.8513 -1.91704 4.72186 -3.20743 -6.80011 2.55675 3.09404 2.43063
0.00092 0.95592 0.00086 184.94794 0 -3.75637 2.0905 2.52289 -5.25498 -42.06688 4.63359 3.47817 -3.55976 -71.24771 -77.16953 22.30073 66.82367 -18.37177 -0.78427 0.11592 64.07759 74.07563 23.49916 -64.12615 -31.1071 1.58348 -4.20824 4.11428 1.94058 -6.48897 -1.37534 -4.21885 -8.93863 -1.88302 4.70048 -3.19786 -6.83777 2.55083 3.09913 2.44598
0.00136 0.95596 0.00132 184.87989 0 -3.77182 1.99585 2.49776 -5.22124 -42.05127 4.71576 3.46859 -3.49784 -71.38133 -77.02113 22.28064 66.84853 -18.40375 -0.7952 -0.04239 63.94968 74.23087 23.5525 -64.22676 -31.11765 1.58978 -4.17244 4.09855 1.93333 -6.48871 -1.40523 -4.21279 -8.89668 -1.87288 4.6855 -3.16153 -6.83546 2.54453 3.10704 2.47394
0.00185 0.95599 0.00185 184.79413 0 -3.79259 1.89584 2.47088 -5.17053 -42.0455 4.80653 3.45737 -3.43229 -71.52512 -76.86588 22.25842 66.91554 -18.44987 -0.80572 -0.20372 63.80274 74.42993 23.62748 -64.33857 -31.12914 1.59243 -4.14429 4.08142 1.88768 -6.46301 -1.44323 -4.19951 -8.81154 -1.87084 4.67192 -3.11493 -6.81944 2.53802 3.11593 2.50626
0.00231 0.95602 0.00235 184.71676 0 -3.81041 1.79855 2.44389 -5.12823 -42.03553 4.8915 3.44742 -3.37121 -71.66015 -76.71875 22.2411 66.96995 -18.49358 -0.81909 -0.36724 63.66285 74.61181 23.69724 -64.44683 -31.14494 1.59806 -4.11283 4.06419 1.86358 -6.44893 -1.47758 -4.18924 -8.74914 -1.86478 4.6568 -3.07264 -6.81036 2.53158 3.12431 2.53629
0.00279 0.95605 0.00284 184.63754 0 -3.83049 1.69964 2.4205 -5.08395 -42.02456 4.98406 3.43603 -3.2991 -71.81444 -76.55088 22.205 66.99547 -18.52075 -0.82184 -0.51908 63.52998 74.78464 23.74733 -64.54919 -31.14278 1.59833 -4.08021 4.05008 1.82388 -6.43507 -1.51191 -4.1803 -8.67491 -1.85995 4.6454 -3.03165 -6.79854 2.52527 3.13302 2.56776
0.00325 0.95608 0.00338 184.55833 0 -3.84715 1.60296 2.38942 -5.03957 -42.01763 5.06298 3.42694 -3.24716 -71.92936 -76.42291 22.21026 67.09135 -18.5851 -0.84619 -0.69262 63.37708 74.9836 23.84363 -64.66618 -31.17554 1.60874 -4.05194 4.02911 1.80638 -6.41473 -1.54809 -4.16679 -8.6143 -1.85455 4.62658 -2.98566 -6.78903 2.51861 3.14123 2.59711
0.00368 0.95612 0.00405 184.48101 0 -3.85266 1.51411 2.33587 -4.99704 -42.02326 5.10247 3.4249 -3.27069 -71.94459 -76.42308 22.30765 67.37585 -18.75424 -0.93276 -0.94996 63.18272 75.26966 24.06205 -64.82261 -31.32835 1.64902 -4.0346 3.98997 1.86616 -6.38006 -1.58835 -4.14267 -8.6054 -1.84553 4.58723 -2.92743 -6.78976 2.51141 3.14808 2.62055
0.00409 0.95616 0.00478 184.40483 0 -3.85458 1.42766 2.27497 -4.95526 -42.03178 5.12793 3.42503 -3.31065 -71.91724 -76.45912 22.45148 67.72981 -18.95909 -1.04069 -1.2238 62.96695 75.57504 24.32635 -64.99344 -31.51189 1.69942 -4.0213 3.94389 1.94835 -6.34011 -1.63004 -4.11417 -8.61105 -1.83567 4.54028 -2.86472 -6.79316 2.50379 3.15432 2.64146
0.00451 0.9562 0.0055 184.32977 0 -3.85839 1.33995 2.21853 -4.91427 -42.03675 5.15965 3.42391 -3.33166 -71.90219 -76.47041 22.58823 68.04822 -19.14419 -1.13699 -1.47444 62.75538 75.85559 24.5697 -65.15579 -31.66568 1.74456 -4.00568 3.90072 2.01563 -6.30423 -1.67046 -4.0874 -8.60738 -1.82625 4.49662 -2.80472 -6.79496 2.49611 3.16068 2.66287
0.00494 0.95624 0.00617 184.24709 0 -3.86135 1.25285 2.1573 -4.86777 -42.0522 5.19215 3.42403 -3.40355 -71.91874 -76.52405 22.66362 68.38184 -19.34545 -1.24086 -1.79356 62.5676 76.20817 24.81395 -65.32471 -31.88596 1.79241 -3.99231 3.85857 2.101 -6.26052 -1.71372 -4.06126 -8.61304 -1.8169 4.4538 -2.74154 -6.79791 2.4895 3.16781 2.68731
